<?xml version="1.0" encoding="UTF-8" standalone="no"?>
<!-- Created with Inkscape (http://www.inkscape.org/) -->

<svg
   width="210mm"
   height="297mm"
   viewBox="0 0 210 297"
   version="1.1"
   id="svg5"
   inkscape:version="1.1.1 (c3084ef, 2021-09-22)"
   sodipodi:docname="logo.svg"
   xmlns:inkscape="http://www.inkscape.org/namespaces/inkscape"
   xmlns:sodipodi="http://sodipodi.sourceforge.net/DTD/sodipodi-0.dtd"
   xmlns:xlink="http://www.w3.org/1999/xlink"
   xmlns="http://www.w3.org/2000/svg"
   xmlns:svg="http://www.w3.org/2000/svg">
  <sodipodi:namedview
     id="namedview7"
     pagecolor="#505050"
     bordercolor="#ffffff"
     borderopacity="1"
     inkscape:pageshadow="0"
     inkscape:pageopacity="0"
     inkscape:pagecheckerboard="1"
     inkscape:document-units="mm"
     showgrid="false"
     inkscape:zoom="1.0333894"
     inkscape:cx="294.66142"
     inkscape:cy="537.55145"
     inkscape:window-width="1999"
     inkscape:window-height="969"
     inkscape:window-x="0"
     inkscape:window-y="25"
     inkscape:window-maximized="0"
     inkscape:current-layer="layer1" />
  <defs
     id="defs2">
    <linearGradient
       inkscape:collect="always"
       id="linearGradient2638">
      <stop
         style="stop-color:#482848;stop-opacity:1;"
         offset="0"
         id="stop2634" />
      <stop
         style="stop-color:#632e2e;stop-opacity:1"
         offset="1"
         id="stop2636" />
    </linearGradient>
    <linearGradient
       inkscape:collect="always"
       xlink:href="#linearGradient2638"
       id="linearGradient2640"
       x1="25.347412"
       y1="150.54828"
       x2="179.48016"
       y2="150.54828"
       gradientUnits="userSpaceOnUse" />
  </defs>
  <g
     inkscape:label="Camada 1"
     inkscape:groupmode="layer"
     id="layer1">
    <g
       id="g2759"
       transform="matrix(0.32958602,0,0,0.32958602,16.993259,49.263295)"
       inkscape:export-filename="/Users/joaoavelino/Documents/DEV/Projetos Portifolio/portifolio/public/logo192.png"
       inkscape:export-xdpi="75"
       inkscape:export-ydpi="75">
      <circle
         style="fill:url(#linearGradient2640);fill-opacity:1;stroke-width:2.065;stroke-linecap:round;stroke-linejoin:round"
         id="path995"
         cx="102.41379"
         cy="150.54828"
         r="77.066376" />
      <path
         style="fill:#ff7f2a;fill-opacity:1;stroke-width:0.25797"
         d="m 83.395436,186.47013 c -0.709415,-0.05 -3.08919,-0.2139 -5.288395,-0.36412 -13.989654,-0.95554 -25.268898,-2.94076 -31.085434,-5.47122 -2.219534,-0.9656 -4.991662,-2.72908 -6.707234,-4.26676 -1.553527,-1.39244 -2.69289,-2.93524 -3.951935,-5.35124 -0.866868,-1.66344 -0.941378,-1.97971 -0.945278,-4.01192 -0.0039,-2.03427 0.07127,-2.35887 0.964778,-4.16678 3.131389,-6.33592 12.237382,-11.21625 23.667177,-12.68435 5.638529,-0.72425 5.41457,-0.71515 5.443782,-0.2211 0.01453,0.24558 0.123621,0.0983 0.242425,-0.3274 0.306971,-1.09971 1.097838,-3.72728 1.979994,-6.57824 0.894754,-2.8917 3.942858,-11.02273 5.028732,-13.41447 1.856441,-4.08901 4.656211,-11.6767 5.884104,-15.9466 0.697627,-2.42594 1.761223,-3.63062 4.271337,-4.83793 2.158772,-1.03833 6.790529,-2.16907 8.899019,-2.1725 2.01136,-0.003 5.54413,0.63396 10.800542,1.94817 l 4.49931,1.1249 2.18508,-0.77123 c 4.2537,-1.50137 8.06137,-2.09742 14.30495,-2.23929 8.24556,-0.18736 10.14708,0.37911 13.89292,4.13871 4.99414,5.0125 7.04497,9.52365 8.81983,19.4007 0.50992,2.83768 1.11528,6.55245 1.34524,8.25505 0.97742,7.23651 1.09015,7.8411 1.59603,8.56034 0.28108,0.39962 0.5881,1.24899 0.68225,1.88746 0.0942,0.63848 0.25487,1.29414 0.35715,1.45703 0.11547,0.18391 2.23931,0.45592 5.60332,0.71767 12.88135,1.00227 14.87218,1.35332 15.6222,2.75475 0.56871,1.06265 -0.14568,3.06258 -2.26559,6.34249 -2.23492,3.45785 -5.19679,6.30461 -10.03802,9.64786 -21.89387,12.33356 -30.79939,14.58808 -45.88371,16.13746 -3.61519,0.3656 -26.295259,0.7086 -29.924574,0.45256 z"
         id="path1077"
         sodipodi:nodetypes="sssssscssssssscscsssssssssssccs" />
    </g>
  </g>
</svg>
